<svg width="34" height="34" viewBox="0 0 34 34" fill="none" xmlns="http://www.w3.org/2000/svg">
<path d="M11.4547 26.3659L19.9492 6.52618C20.2572 5.80693 21.0898 5.47351 21.8092 5.78146C22.477 6.06742 22.8122 6.80585 22.6102 7.48575L22.5538 7.64137L14.0593 27.4811C13.7513 28.2004 12.9186 28.5337 12.1994 28.2259C11.5315 27.9399 11.1963 27.2015 11.3984 26.5215L11.4547 26.3659L19.9492 6.52618L11.4547 26.3659ZM3.24842 15.9986L8.91509 10.332C9.46834 9.77881 10.3653 9.77881 10.9186 10.332C11.4292 10.8427 11.4685 11.6463 11.0364 12.2021L10.9186 12.3355L6.25363 17.0005L10.9186 21.6653C11.4718 22.2187 11.4718 23.1155 10.9186 23.6689C10.4079 24.1795 9.6043 24.2188 9.04856 23.7868L8.91509 23.6689L3.24842 18.0022C2.73774 17.4915 2.69846 16.6878 3.13057 16.1322L3.24842 15.9986L8.91509 10.332L3.24842 15.9986ZM23.0806 10.3303C23.5914 9.81962 24.3949 9.78038 24.9506 10.2125L25.0841 10.3304L30.7519 15.9988C31.2629 16.5096 31.3018 17.3137 30.8692 17.8693L30.7512 18.0028L25.0834 23.6632C24.5297 24.216 23.6327 24.2155 23.0799 23.6618C22.5695 23.1508 22.5308 22.3473 22.9633 21.7918L23.0812 21.6584L27.7461 16.9998L23.0805 12.3338C22.5273 11.7805 22.5273 10.8835 23.0806 10.3303Z" fill="#2EC790"/>
</svg>
