<svg xmlns="http://www.w3.org/2000/svg" width="512" height="512" fill="none" viewBox="0 0 512 512"><g clip-path="url(#clip0)"><rect width="312" height="91" x="98" y="-15" fill="#fff"/><path fill="#000" d="M108.4 0H131.4V22.8H152.6V0H175.6V69H152.6V46H131.6V69H108.4V0ZM206 23H185.7V0H249.4V23H229V69H206V23ZM259.5 0H283.6L298.4 24.3L313.2 0H337.3V69H314.3V34.8L298.2 59.6L282.1 34.8V69H259.5V0ZM348.7 0H371.7V46.2H404.3V69H348.7"/><path fill="#E44D26" d="M107.6 471L74.6 100.6H437.4L404.4 470.8L255.7 512"/><path fill="#F16529" d="M256 480.5V131H404.3L376 447"/><path fill="#EBEBEB" d="M142 176.3H256V221.7H191.8L196 268.2H256V313.5H154.4L142 176.3ZM156.4 336.3H202L205.2 372.6L256 386.2V433.6L162.8 407.6"/><path fill="#fff" d="M369.6 176.3H255.8V221.7H365.4L369.6 176.3ZM361.3 268.2H255.8V313.6H311.8L306.5 372.6L255.8 386.2V433.4L348.8 407.6"/></g><defs><clipPath id="clip0"><rect width="512" height="512" fill="#fff"/></clipPath></defs></svg>