<svg xmlns="http://www.w3.org/2000/svg" width="266" height="312" fill="none" viewBox="0 0 266 312"><path fill="#fff" stroke="#000" d="M47.5 193.5L43.5 202.5L42 214L40 220L36.5 226.5L29 228.5H21L14.5 231.5L13 235L12 240.5L13 249L14.5 254V260L13 266L9 273.5L6 278.5L10 283.5L14.5 286.5L24.5 289L37.5 292L46 295L56 298L61.5 299.5L71.5 302L76.5 303L84.5 304H88.5L92 302L99 298L104 293.5L112 291L126 289L145 291L151 290L170 291L173 297L177.5 302L182.5 304L188.5 305H193H198.5L203.5 302L208.5 299.5L212.5 297L216 293.5L219.5 291L224 286.5L230.5 282L237 277.5L244 274.5L248.5 271.5L256 268.5L260.5 264V261L258 254.5L254 252L248.5 248.5L242.5 244.5L239.5 239L237 233L236 226.5L235 222L232.5 221H230.5L232.5 213L233.5 206.5L232.5 197.5V190L230.5 179.5L227 168.5L222.5 158L216 146L207 135.5L202.5 128L195 117L190.5 109.5L185.5 100L180 85.5V73L178 55L174.5 38.5L171 28.5L162.5 17.5L155.5 12.5L146 8.5H128H115L107.5 12.5L100 20L95.5 28.5L92 41.5V56.5V78L94 88.5V105.5L87.5 117L81 126L74 134.5L66 144.5L63.5 154L60.5 164L56.5 174.5L52.5 182L47.5 193.5Z"/><path fill="#fff" d="M128.371 78.77C128.371 79.7832 127.358 79.7832 127.358 79.7832H126.345C125.331 79.7832 125.331 78.77 124.318 77.7569C124.318 77.7569 123.305 76.7438 123.305 75.7306C123.305 74.7175 123.305 74.7175 124.318 74.7175L126.345 75.7306C127.358 76.7438 128.371 77.7569 128.371 78.77ZM110.136 68.6386C110.136 63.5729 108.11 60.5334 105.071 60.5334C105.071 60.5334 105.071 61.5466 104.058 61.5466V63.5729H107.097C107.097 65.5992 108.11 66.6123 108.11 68.6386H110.136ZM145.592 63.5729C147.618 63.5729 148.631 65.5992 149.644 68.6386H151.67C150.657 67.6255 150.657 66.6123 150.657 65.5992C150.657 64.586 150.657 63.5729 149.644 62.5597C148.631 61.5466 147.618 60.5334 146.605 60.5334C146.605 60.5334 145.592 61.5466 144.579 61.5466C144.579 62.5597 145.592 62.5597 145.592 63.5729ZM115.201 79.7832C114.188 79.7832 114.188 79.7832 114.188 78.77C114.188 77.7569 114.188 76.7438 115.201 75.7306C117.227 75.7306 118.24 74.7175 118.24 74.7175C119.253 74.7175 119.253 75.7306 119.253 75.7306C119.253 76.7438 118.24 77.7569 116.214 79.7832H115.201ZM104.058 78.77C100.006 76.7438 98.9931 73.7043 98.9931 68.6386C98.9931 65.5992 98.9931 63.5729 101.019 61.5466C102.032 59.5203 104.058 58.5072 106.084 58.5072C108.11 58.5072 109.123 59.5203 111.149 61.5466C112.162 64.586 113.175 67.6255 113.175 70.6649V71.678V72.6912H114.188V71.678C115.201 71.678 115.201 69.6517 115.201 65.5992C115.201 62.5597 115.201 59.5203 113.175 56.4809C111.149 53.4414 109.123 51.4151 105.071 51.4151C102.032 51.4151 98.9931 53.4414 97.9801 56.4809C95.9541 60.5334 95.5489 63.5729 95.5489 68.6386C95.5489 72.6912 96.9671 76.7438 101.019 80.7963C102.032 79.7832 103.045 79.7832 104.058 78.77ZM230.685 221.623C231.698 221.623 231.698 221.218 231.698 220.306C231.698 218.077 230.685 215.443 227.646 212.505C224.607 209.466 219.542 207.541 213.464 206.73C212.451 206.629 211.438 206.629 211.438 206.629C210.425 206.426 210.425 206.426 209.412 206.426C208.399 206.325 206.373 206.122 205.36 205.92C208.399 196.497 209.412 188.19 209.412 180.895C209.412 170.764 207.386 163.672 203.334 157.593C199.281 151.514 195.229 148.474 190.164 147.461C189.151 148.474 189.151 148.474 189.151 149.488C194.216 151.514 199.281 155.566 202.321 161.645C205.36 168.737 206.373 174.816 206.373 181.908C206.373 187.582 205.36 195.991 201.307 206.73C197.255 208.351 193.203 212.1 190.164 217.976C190.164 218.888 190.164 219.394 191.177 219.394C191.177 219.394 192.19 218.483 193.203 216.76C195.229 215.038 196.242 213.316 198.268 211.593C201.307 209.871 203.334 208.959 206.373 208.959C211.438 208.959 216.503 209.668 219.542 211.087C223.594 212.404 225.62 213.822 226.633 215.443C227.646 216.963 228.659 218.381 229.672 219.698C229.672 221.016 230.685 221.623 230.685 221.623V221.623ZM137.488 74.7175C136.475 73.7043 136.475 71.678 136.475 69.6517C136.475 65.5992 136.475 63.5729 138.501 60.5334C140.527 58.5072 142.553 57.494 144.579 57.494C147.618 57.494 149.644 59.5203 151.67 61.5466C152.683 64.586 153.696 66.6123 153.696 69.6517C153.696 74.7175 151.67 77.7569 147.618 78.77C147.618 78.77 148.631 79.7832 149.644 79.7832C151.67 79.7832 152.683 80.7963 154.709 81.8095C155.722 75.7306 156.735 71.678 156.735 66.6123C156.735 60.5334 155.722 56.4809 153.696 53.4414C150.657 50.402 147.618 49.3889 143.566 49.3889C140.527 49.3889 137.488 50.402 134.449 52.4283C132.423 55.4677 131.41 57.494 131.41 60.5334C131.41 65.5992 132.423 69.6517 134.449 73.7043C135.462 73.7043 136.475 74.7175 137.488 74.7175ZM149.644 90.9278C136.475 100.046 126.345 104.099 118.24 104.099C111.149 104.099 104.058 101.059 97.9801 95.9935C98.9931 98.0198 100.006 100.046 101.019 101.059L107.097 107.138C111.149 111.191 116.214 113.217 121.279 113.217C128.371 113.217 136.475 109.164 146.605 102.072L155.722 95.9935C157.748 93.9672 159.774 91.9409 159.774 88.9015C159.774 87.8883 159.774 86.8752 158.761 86.8752C157.748 84.8489 152.683 81.8095 142.553 78.77C133.436 74.7175 126.345 72.6912 122.292 72.6912C119.253 72.6912 114.188 74.7175 107.097 78.77C101.019 82.8226 96.9671 86.8752 96.9671 90.9278C96.9671 90.9278 97.9801 91.9409 98.9931 93.9672C105.071 99.0329 111.149 102.072 117.227 102.072C125.331 102.072 135.462 98.0198 148.631 87.8883V89.9146C149.644 89.9146 149.644 90.9278 149.644 90.9278ZM172.943 295.583C176.995 303.202 184.086 307.031 192.19 307.031C194.216 307.031 196.242 306.728 198.268 306.12C200.294 305.714 202.321 305.005 203.334 304.195C204.347 303.485 205.36 302.776 206.373 301.966C208.399 301.257 208.399 300.75 209.412 300.243L226.633 285.35C230.685 282.118 234.737 279.292 239.802 276.84C243.854 274.408 247.906 272.787 249.932 271.875C252.971 271.065 254.997 269.849 257.023 268.228C258.036 266.708 259.049 264.783 259.049 262.352C259.049 259.414 257.023 257.185 254.997 255.564C252.971 253.943 250.945 252.828 248.919 252.119C246.893 251.41 244.867 249.789 241.828 247.053C239.802 244.419 237.776 240.772 236.763 236.01L235.75 230.134C234.737 227.398 234.737 225.372 233.724 224.258C233.724 223.954 233.724 223.852 232.711 223.852C231.698 223.852 229.672 224.764 228.659 226.486C226.633 228.209 224.607 230.134 222.581 232.16C221.568 234.186 218.529 236.01 216.503 237.732C213.464 239.455 210.425 240.367 208.399 240.367C200.294 240.367 196.242 238.138 193.203 233.781C191.177 230.539 190.164 226.79 189.151 222.535C187.125 220.813 186.112 219.901 184.086 219.901C179.021 219.901 176.995 225.169 176.995 235.807V239.151V250.903V259.92V264.277V267.316C176.995 268.228 175.982 270.254 175.982 273.395C174.969 276.536 174.969 280.102 174.969 284.134L172.943 295.38V295.553V295.583ZM26.0562 290.193C35.4772 291.571 46.3165 294.519 58.5739 299.018C70.8314 303.475 78.3277 305.806 81.0628 305.806C88.1539 305.806 94.0294 302.665 98.8918 296.596C99.9049 294.631 99.9049 292.321 99.9049 289.666C99.9049 280.092 94.1307 267.985 82.5823 253.294L75.6938 244.075C74.2756 242.15 72.5535 239.212 70.3249 235.26C68.1975 231.309 66.2728 228.27 64.7533 226.142C63.4364 223.812 61.309 221.482 58.5739 219.151C55.9401 216.821 52.901 215.301 49.5581 214.491C45.3034 215.301 42.3657 216.72 40.9475 218.645C39.5293 220.57 38.7188 222.697 38.5162 224.926C38.2123 227.054 37.6045 228.472 36.5915 229.181C35.5785 229.789 33.8564 230.296 31.5265 230.802C31.02 230.802 30.1082 230.802 28.7913 230.904H26.0562C20.6872 230.904 17.0404 231.512 15.1156 232.525C12.5831 235.463 11.2662 238.806 11.2662 242.352C11.2662 243.973 11.6714 246.709 12.4818 250.559C13.2922 254.307 13.6974 257.347 13.6974 259.474C13.6974 263.628 12.4818 267.782 9.94927 271.936C7.41674 276.293 6.09982 279.535 6.09982 281.845C7.11283 285.776 13.7987 288.542 26.0562 290.163V290.193ZM59.7895 198.068C59.7895 191.077 61.613 183.377 65.3611 174.259C69.008 165.141 72.6548 159.062 76.2003 155.009C75.9977 153.996 75.4912 153.996 74.6808 153.996L73.6678 152.983C70.7301 156.022 67.1845 163.114 62.9299 173.246C58.6752 182.364 56.4466 190.773 56.4466 196.953C56.4466 201.512 57.5609 205.464 59.5869 208.908C61.8156 212.252 67.1845 217.115 75.6938 223.295L86.4318 230.286C97.8788 240.215 103.957 247.104 103.957 251.157C103.957 253.284 102.944 255.412 99.9049 257.742C97.8788 260.174 95.1437 261.389 92.8138 261.389C92.6112 261.389 92.5099 261.592 92.5099 262.099C92.5099 262.2 93.5229 264.226 95.6502 268.177C99.9049 273.952 109.022 276.789 121.178 276.789C143.464 276.789 160.686 267.671 173.855 249.434C173.855 244.368 173.855 241.228 172.842 239.911V236.162C172.842 229.577 173.855 224.612 175.881 221.37C177.907 218.128 179.933 216.608 182.972 216.608C184.998 216.608 187.024 217.318 189.05 218.837C190.063 211.036 190.063 204.248 190.063 198.169C190.063 188.949 190.063 181.351 188.037 174.259C187.024 168.18 184.998 163.114 182.972 159.062C180.946 156.022 178.92 152.983 176.894 149.943C174.868 146.904 173.855 143.865 171.829 140.825C170.816 136.773 169.803 133.733 169.803 128.667C166.764 123.602 164.738 118.536 161.699 113.47C159.673 108.405 157.647 103.339 155.621 99.2862L146.503 106.378C136.373 113.47 128.269 116.51 121.178 116.51C115.1 116.51 110.035 115.497 106.996 111.444L100.918 106.378C100.918 109.418 99.9049 113.47 97.8788 117.523L91.4968 129.681C88.6604 136.773 87.1409 140.825 86.837 143.865C86.4318 145.891 86.1279 147.917 85.9253 147.917L78.3277 163.114C70.1223 178.311 65.9689 192.394 65.9689 204.045C65.9689 206.376 66.1715 208.807 66.5767 211.239C62.0182 208.098 59.7895 203.741 59.7895 198.068V198.068ZM132.321 293.911C119.152 293.911 109.022 295.694 101.931 299.23V298.926C96.8658 305.005 91.1929 308.146 83.2914 308.146C78.3277 308.146 70.5275 306.221 59.9921 302.371C49.3555 298.724 39.9345 295.927 31.7291 294.083C30.9186 293.85 29.0952 293.506 26.1575 293.04C23.321 292.584 20.6872 292.118 18.3573 291.652C16.23 291.196 13.7987 290.507 11.1649 289.575C8.63235 288.775 6.60633 287.731 5.08681 286.465C3.68885 285.188 3 283.749 3 282.139C3 280.517 3.34442 278.785 4.03327 276.941C4.6816 275.827 5.39071 274.712 6.09982 273.699C6.80893 272.585 7.41674 271.571 7.82194 270.558C8.42975 269.646 8.83496 268.735 9.24016 267.721C9.64537 266.81 10.0506 265.898 10.2532 264.783C10.4558 263.77 10.6584 262.757 10.6584 261.744C10.6584 260.731 10.2532 257.691 9.44277 252.322C8.63235 247.053 8.22715 243.71 8.22715 242.292C8.22715 237.834 9.24016 234.288 11.4688 231.755C13.6974 229.222 15.8247 227.905 18.0534 227.905H29.703C30.6147 227.905 32.033 227.398 34.1603 226.183C34.8694 224.562 35.4772 223.244 35.8824 222.029C36.3889 220.813 36.5915 219.901 36.7941 219.496C36.9967 218.888 37.1993 218.28 37.4019 217.773C37.8071 217.064 38.3136 216.254 39.0228 215.443C38.2123 214.43 37.8071 213.113 37.8071 211.492C37.8071 210.377 37.8071 209.364 38.0097 208.756C38.0097 205.109 39.7319 199.942 43.3787 193.154L46.9243 186.771C49.862 181.3 52.0906 177.248 53.7114 173.195C55.4336 169.143 57.257 163.064 59.283 154.958C60.9038 147.866 64.7533 140.774 70.8314 133.682L78.429 124.564C83.6966 118.485 87.1409 113.42 89.0656 109.367C90.9903 105.314 92.0034 100.249 92.0034 96.1961C92.0034 94.1698 91.4968 88.091 90.3825 77.9595C89.3695 67.8281 88.863 57.6966 88.863 48.5783C88.863 41.4863 89.4708 36.4206 90.7877 31.3549C92.1047 26.2892 94.4346 21.2235 97.8788 17.1709C100.918 13.1183 104.97 9.06572 111.048 7.03943C117.126 5.01314 124.217 4 132.321 4C135.36 4 138.399 4 141.438 5.01314C144.477 5.01314 148.529 6.02629 153.595 8.05258C157.647 10.0789 161.699 12.1052 164.738 15.1446C168.79 18.184 171.829 23.2497 174.868 28.3154C176.894 34.3943 178.92 40.4732 179.933 48.5783C180.946 53.6441 180.946 58.7098 181.959 65.8018C181.959 71.8807 182.972 75.9332 182.972 78.9727C183.985 82.0121 183.985 86.0647 184.998 91.1304C186.011 95.183 187.024 99.2356 189.05 102.275C191.076 106.328 193.102 110.38 196.141 114.433C199.18 119.498 203.232 124.564 207.284 130.643C216.401 140.774 223.492 151.919 227.545 163.064C232.61 173.195 235.649 186.366 235.649 200.449C235.649 207.439 234.636 214.227 232.61 220.813C234.636 220.813 235.649 221.623 236.662 223.042C237.675 224.46 238.688 227.5 239.701 232.261L240.714 239.759C241.727 241.988 242.74 244.115 245.779 245.939C247.805 247.763 249.831 249.282 252.87 250.498C254.896 251.511 257.935 252.93 259.961 254.753C261.987 256.78 263 258.907 263 261.136C263 264.581 261.987 267.114 259.961 268.937C257.935 270.964 255.909 272.382 252.87 273.294C250.844 274.307 246.792 276.333 240.714 279.19C235.649 282.189 230.584 285.826 225.519 290.132L215.388 298.754C211.336 302.705 207.284 305.542 204.245 307.264C201.206 309.088 197.154 310 193.102 310L186.011 309.189C177.907 307.062 172.842 303.009 169.803 296.829C153.595 294.864 140.425 293.891 132.321 293.891"/><path fill="#000" d="M128.664 79.2793C128.664 80.2793 127.664 80.2793 127.664 80.2793H126.664C125.664 80.2793 125.664 79.2793 124.664 78.2793C124.664 78.2793 123.664 77.2793 123.664 76.2793C123.664 75.2793 123.664 75.2793 124.664 75.2793L126.664 76.2793C127.664 77.2793 128.664 78.2793 128.664 79.2793ZM110.664 69.2793C110.664 64.2793 108.664 61.2793 105.664 61.2793C105.664 61.2793 105.664 62.2793 104.664 62.2793V64.2793H107.664C107.664 66.2793 108.664 67.2793 108.664 69.2793H110.664ZM145.664 64.2793C147.664 64.2793 148.664 66.2793 149.664 69.2793H151.664C150.664 68.2793 150.664 67.2793 150.664 66.2793C150.664 65.2793 150.664 64.2793 149.664 63.2793C148.664 62.2793 147.664 61.2793 146.664 61.2793C146.664 61.2793 145.664 62.2793 144.664 62.2793C144.664 63.2793 145.664 63.2793 145.664 64.2793ZM115.664 80.2793C114.664 80.2793 114.664 80.2793 114.664 79.2793C114.664 78.2793 114.664 77.2793 115.664 76.2793C117.664 76.2793 118.664 75.2793 118.664 75.2793C119.664 75.2793 119.664 76.2793 119.664 76.2793C119.664 77.2793 118.664 78.2793 116.664 80.2793H115.664ZM104.664 79.2793C100.664 77.2793 99.6641 74.2793 99.6641 69.2793C99.6641 66.2793 99.6641 64.2793 101.664 62.2793C102.664 60.2793 104.664 59.2793 106.664 59.2793C108.664 59.2793 109.664 60.2793 111.664 62.2793C112.664 65.2793 113.664 68.2793 113.664 71.2793V72.2793V73.2793H114.664V72.2793C115.664 72.2793 115.664 70.2793 115.664 66.2793C115.664 63.2793 115.664 60.2793 113.664 57.2793C111.664 54.2793 109.664 52.2793 105.664 52.2793C102.664 52.2793 99.6641 54.2793 98.6641 57.2793C96.6641 61.2793 96.2641 64.2793 96.2641 69.2793C96.2641 73.2793 97.6641 77.2793 101.664 81.2793C102.664 80.2793 103.664 80.2793 104.664 79.2793ZM229.664 220.279C230.664 220.279 230.664 219.879 230.664 218.979C230.664 216.779 229.664 214.179 226.664 211.279C223.664 208.279 218.664 206.379 212.664 205.579C211.664 205.479 210.664 205.479 210.664 205.479C209.664 205.279 209.664 205.279 208.664 205.279C207.664 205.179 205.664 204.979 204.664 204.779C207.664 195.479 208.664 187.279 208.664 180.079C208.664 170.079 206.664 163.079 202.664 157.079C198.664 151.079 194.664 148.079 189.664 147.079C188.664 148.079 188.664 148.079 188.664 149.079C193.664 151.079 198.664 155.079 201.664 161.079C204.664 168.079 205.664 174.079 205.664 181.079C205.664 186.679 204.664 194.979 200.664 205.579C196.664 207.179 192.664 210.879 189.664 216.679C189.664 217.579 189.664 218.079 190.664 218.079C190.664 218.079 191.664 217.179 192.664 215.479C194.664 213.779 195.664 212.079 197.664 210.379C200.664 208.679 202.664 207.779 205.664 207.779C210.664 207.779 215.664 208.479 218.664 209.879C222.664 211.179 224.664 212.579 225.664 214.179C226.664 215.679 227.664 217.079 228.664 218.379C228.664 219.679 229.664 220.279 229.664 220.279V220.279ZM137.664 75.2793C136.664 74.2793 136.664 72.2793 136.664 70.2793C136.664 66.2793 136.664 64.2793 138.664 61.2793C140.664 59.2793 142.664 58.2793 144.664 58.2793C147.664 58.2793 149.664 60.2793 151.664 62.2793C152.664 65.2793 153.664 67.2793 153.664 70.2793C153.664 75.2793 151.664 78.2793 147.664 79.2793C147.664 79.2793 148.664 80.2793 149.664 80.2793C151.664 80.2793 152.664 81.2793 154.664 82.2793C155.664 76.2793 156.664 72.2793 156.664 67.2793C156.664 61.2793 155.664 57.2793 153.664 54.2793C150.664 51.2793 147.664 50.2793 143.664 50.2793C140.664 50.2793 137.664 51.2793 134.664 53.2793C132.664 56.2793 131.664 58.2793 131.664 61.2793C131.664 66.2793 132.664 70.2793 134.664 74.2793C135.664 74.2793 136.664 75.2793 137.664 75.2793ZM149.664 91.2793C136.664 100.279 126.664 104.279 118.664 104.279C111.664 104.279 104.664 101.279 98.6641 96.2793C99.6641 98.2793 100.664 100.279 101.664 101.279L107.664 107.279C111.664 111.279 116.664 113.279 121.664 113.279C128.664 113.279 136.664 109.279 146.664 102.279L155.664 96.2793C157.664 94.2793 159.664 92.2793 159.664 89.2793C159.664 88.2793 159.664 87.2793 158.664 87.2793C157.664 85.2793 152.664 82.2793 142.664 79.2793C133.664 75.2793 126.664 73.2793 122.664 73.2793C119.664 73.2793 114.664 75.2793 107.664 79.2793C101.664 83.2793 97.6641 87.2793 97.6641 91.2793C97.6641 91.2793 98.6641 92.2793 99.6641 94.2793C105.664 99.2793 111.664 102.279 117.664 102.279C125.664 102.279 135.664 98.2793 148.664 88.2793V90.2793C149.664 90.2793 149.664 91.2793 149.664 91.2793ZM172.664 293.279C176.664 300.799 183.664 304.579 191.664 304.579C193.664 304.579 195.664 304.279 197.664 303.679C199.664 303.279 201.664 302.579 202.664 301.779C203.664 301.079 204.664 300.379 205.664 299.579C207.664 298.879 207.664 298.379 208.664 297.879L225.664 283.179C229.664 279.989 233.664 277.199 238.664 274.779C242.664 272.379 246.664 270.779 248.664 269.879C251.664 269.079 253.664 267.879 255.664 266.279C256.664 264.779 257.664 262.879 257.664 260.479C257.664 257.579 255.664 255.379 253.664 253.779C251.664 252.179 249.664 251.079 247.664 250.379C245.664 249.679 243.664 248.079 240.664 245.379C238.664 242.779 236.664 239.179 235.664 234.479L234.664 228.679C233.664 225.979 233.664 223.979 232.664 222.879C232.664 222.579 232.664 222.479 231.664 222.479C230.664 222.479 228.664 223.379 227.664 225.079C225.664 226.779 223.664 228.679 221.664 230.679C220.664 232.679 217.664 234.479 215.664 236.179C212.664 237.879 209.664 238.779 207.664 238.779C199.664 238.779 195.664 236.579 192.664 232.279C190.664 229.079 189.664 225.379 188.664 221.179C186.664 219.479 185.664 218.579 183.664 218.579C178.664 218.579 176.664 223.779 176.664 234.279V237.579V249.179V258.079V262.379V265.379C176.664 266.279 175.664 268.279 175.664 271.379C174.664 274.479 174.664 277.999 174.664 281.979L172.664 293.079V293.249V293.279ZM27.6641 287.959C36.9641 289.319 47.6641 292.229 59.7641 296.669C71.8641 301.069 79.2641 303.369 81.9641 303.369C88.9641 303.369 94.7641 300.269 99.5641 294.279C100.564 292.339 100.564 290.059 100.564 287.439C100.564 277.989 94.8641 266.039 83.4641 251.539L76.6641 242.439C75.2641 240.539 73.5641 237.639 71.3641 233.739C69.2641 229.839 67.3641 226.839 65.8641 224.739C64.5641 222.439 62.4641 220.139 59.7641 217.839C57.1641 215.539 54.1641 214.039 50.8641 213.239C46.6641 214.039 43.7641 215.439 42.3641 217.339C40.9641 219.239 40.1641 221.339 39.9641 223.539C39.6641 225.639 39.0641 227.039 38.0641 227.739C37.0641 228.339 35.3641 228.839 33.0641 229.339C32.5641 229.339 31.6641 229.339 30.3641 229.439H27.6641C22.3641 229.439 18.7641 230.039 16.8641 231.039C14.3641 233.939 13.0641 237.239 13.0641 240.739C13.0641 242.339 13.4641 245.039 14.2641 248.839C15.0641 252.539 15.4641 255.539 15.4641 257.639C15.4641 261.739 14.2641 265.839 11.7641 269.939C9.26405 274.239 7.96405 277.439 7.96405 279.719C8.96405 283.599 15.5641 286.329 27.6641 287.929V287.959ZM60.9641 197.029C60.9641 190.129 62.7641 182.529 66.4641 173.529C70.0641 164.529 73.6641 158.529 77.1641 154.529C76.9641 153.529 76.4641 153.529 75.6641 153.529L74.6641 152.529C71.7641 155.529 68.2641 162.529 64.0641 172.529C59.8641 181.529 57.6641 189.829 57.6641 195.929C57.6641 200.429 58.7641 204.329 60.7641 207.729C62.9641 211.029 68.2641 215.829 76.6641 221.929L87.2641 228.829C98.5641 238.629 104.564 245.429 104.564 249.429C104.564 251.529 103.564 253.629 100.564 255.929C98.5641 258.329 95.8641 259.529 93.5641 259.529C93.3641 259.529 93.2641 259.729 93.2641 260.229C93.2641 260.329 94.2641 262.329 96.3641 266.229C100.564 271.929 109.564 274.729 121.564 274.729C143.564 274.729 160.564 265.729 173.564 247.729C173.564 242.729 173.564 239.629 172.564 238.329V234.629C172.564 228.129 173.564 223.229 175.564 220.029C177.564 216.829 179.564 215.329 182.564 215.329C184.564 215.329 186.564 216.029 188.564 217.529C189.564 209.829 189.564 203.129 189.564 197.129C189.564 188.029 189.564 180.529 187.564 173.529C186.564 167.529 184.564 162.529 182.564 158.529C180.564 155.529 178.564 152.529 176.564 149.529C174.564 146.529 173.564 143.529 171.564 140.529C170.564 136.529 169.564 133.529 169.564 128.529C166.564 123.529 164.564 118.529 161.564 113.529C159.564 108.529 157.564 103.529 155.564 99.5293L146.564 106.529C136.564 113.529 128.564 116.529 121.564 116.529C115.564 116.529 110.564 115.529 107.564 111.529L101.564 106.529C101.564 109.529 100.564 113.529 98.5641 117.529L92.2641 129.529C89.4641 136.529 87.9641 140.529 87.6641 143.529C87.2641 145.529 86.9641 147.529 86.7641 147.529L79.2641 162.529C71.1641 177.529 67.0641 191.429 67.0641 202.929C67.0641 205.229 67.2641 207.629 67.6641 210.029C63.1641 206.929 60.9641 202.629 60.9641 197.029V197.029ZM132.564 291.629C119.564 291.629 109.564 293.389 102.564 296.879V296.579C97.5641 302.579 91.9641 305.679 84.1641 305.679C79.2641 305.679 71.5641 303.779 61.1641 299.979C50.6641 296.379 41.3641 293.619 33.2641 291.799C32.4641 291.569 30.6641 291.229 27.7641 290.769C24.9641 290.319 22.3641 289.859 20.0641 289.399C17.9641 288.949 15.5641 288.269 12.9641 287.349C10.4641 286.559 8.46405 285.529 6.96405 284.279C5.58405 283.019 4.90405 281.599 4.90405 280.009C4.90405 278.409 5.24405 276.699 5.92405 274.879C6.56405 273.779 7.26405 272.679 7.96405 271.679C8.66405 270.579 9.26405 269.579 9.66405 268.579C10.2641 267.679 10.6641 266.779 11.0641 265.779C11.4641 264.879 11.8641 263.979 12.0641 262.879C12.2641 261.879 12.4641 260.879 12.4641 259.879C12.4641 258.879 12.0641 255.879 11.2641 250.579C10.4641 245.379 10.0641 242.079 10.0641 240.679C10.0641 236.279 11.0641 232.779 13.2641 230.279C15.4641 227.779 17.5641 226.479 19.7641 226.479H31.2641C32.1641 226.479 33.5641 225.979 35.6641 224.779C36.3641 223.179 36.9641 221.879 37.3641 220.679C37.8641 219.479 38.0641 218.579 38.2641 218.179C38.4641 217.579 38.6641 216.979 38.8641 216.479C39.2641 215.779 39.7641 214.979 40.4641 214.179C39.6641 213.179 39.2641 211.879 39.2641 210.279C39.2641 209.179 39.2641 208.179 39.4641 207.579C39.4641 203.979 41.1641 198.879 44.7641 192.179L48.2641 185.879C51.1641 180.479 53.3641 176.479 54.9641 172.479C56.6641 168.479 58.4641 162.479 60.4641 154.479C62.0641 147.479 65.8641 140.479 71.8641 133.479L79.3641 124.479C84.5641 118.479 87.9641 113.479 89.8641 109.479C91.7641 105.479 92.7641 100.479 92.7641 96.4793C92.7641 94.4793 92.2641 88.4793 91.1641 78.4793C90.1641 68.4793 89.6641 58.4793 89.6641 49.4793C89.6641 42.4793 90.2641 37.4793 91.5641 32.4793C92.8641 27.4793 95.1641 22.4793 98.5641 18.4793C101.564 14.4793 105.564 10.4793 111.564 8.47931C117.564 6.47931 124.564 5.47931 132.564 5.47931C135.564 5.47931 138.564 5.47931 141.564 6.47931C144.564 6.47931 148.564 7.47931 153.564 9.47931C157.564 11.4793 161.564 13.4793 164.564 16.4793C168.564 19.4793 171.564 24.4793 174.564 29.4793C176.564 35.4793 178.564 41.4793 179.564 49.4793C180.564 54.4793 180.564 59.4793 181.564 66.4793C181.564 72.4793 182.564 76.4793 182.564 79.4793C183.564 82.4793 183.564 86.4793 184.564 91.4793C185.564 95.4793 186.564 99.4793 188.564 102.479C190.564 106.479 192.564 110.479 195.564 114.479C198.564 119.479 202.564 124.479 206.564 130.479C215.564 140.479 222.564 151.479 226.564 162.479C231.564 172.479 234.564 185.479 234.564 199.379C234.564 206.279 233.564 212.979 231.564 219.479C233.564 219.479 234.564 220.279 235.564 221.679C236.564 223.079 237.564 226.079 238.564 230.779L239.564 238.179C240.564 240.379 241.564 242.479 244.564 244.279C246.564 246.079 248.564 247.579 251.564 248.779C253.564 249.779 256.564 251.179 258.564 252.979C260.564 254.979 261.564 257.079 261.564 259.279C261.564 262.679 260.564 265.179 258.564 266.979C256.564 268.979 254.564 270.379 251.564 271.279C249.564 272.279 245.564 274.279 239.564 277.099C234.564 280.059 229.564 283.649 224.564 287.899L214.564 296.409C210.564 300.309 206.564 303.109 203.564 304.809C200.564 306.609 196.564 307.509 192.564 307.509L185.564 306.709C177.564 304.609 172.564 300.609 169.564 294.509C153.564 292.569 140.564 291.609 132.564 291.609"/></svg>