<svg width="50" height="50" viewBox="0 0 50 50" fill="none" xmlns="http://www.w3.org/2000/svg">
<path d="M10.6914 28.1897V42.4826H25.003V8H10.6914V28.1897Z" fill="#2075B8"/>
<path d="M25 28.1897V42.4826H39.3116V8H25V28.1897Z" fill="#20A6B8"/>
<path d="M16.94 37.1194L5.42841 25.6077C5.09157 25.2709 5.09157 24.7254 5.42841 24.3886L16.94 12.8773C17.2765 12.5409 17.8224 12.5409 18.1592 12.8773L19.9876 14.7061C20.324 15.0426 20.324 15.5884 19.9876 15.9249L10.9139 24.9982L19.9876 34.0718C20.324 34.4083 20.324 34.9541 19.9876 35.291L18.1592 37.1194C17.8224 37.4558 17.2765 37.4558 16.94 37.1194Z" fill="#F7AB3B"/>
<path d="M33.0655 37.1194L44.5771 25.6077C44.9136 25.2709 44.9136 24.7254 44.5771 24.3886L33.0655 12.8773C32.7287 12.5409 32.1828 12.5409 31.8464 12.8773L30.018 14.7061C29.6815 15.0426 29.6815 15.5884 30.018 15.9249L39.0916 24.9982L30.018 34.0718C29.6815 34.4083 29.6815 34.9541 30.018 35.291L31.8464 37.1194C32.1828 37.4558 32.7287 37.4558 33.0655 37.1194Z" fill="#F6AB3B"/>
</svg>
