<svg xmlns="http://www.w3.org/2000/svg" width="204" height="207" fill="none" viewBox="0 0 204 207"><path fill="#5B59B3" d="M153.602 58.38C146.899 51.191 138.952 45.605 129.982 41.777C128.683 41.225 127.182 41.486 126.152 42.449C125.118 43.412 124.752 44.892 125.212 46.226C133.34 69.67 126.866 95.75 108.727 112.667C90.581 129.585 64.113 134.224 41.297 124.479C40.009 123.929 38.497 124.188 37.467 125.151C36.433 126.114 36.067 127.594 36.527 128.928C39.724 138.146 44.742 146.463 51.445 153.648C64.166 167.291 81.441 175.165 100.085 175.816C100.921 175.846 101.753 175.859 102.585 175.859C120.313 175.859 137.125 169.248 150.156 157.095C163.803 144.371 171.673 127.097 172.324 108.452C172.973 89.807 166.326 72.025 153.602 58.38ZM165.198 108.203C164.613 124.943 157.543 140.454 145.293 151.878C133.043 163.301 117.07 169.303 100.334 168.687C83.591 168.104 68.082 161.035 56.66 148.783C52.45 144.272 48.982 139.264 46.297 133.836C69.767 140.708 95.424 134.823 113.588 117.884C131.755 100.943 139.416 75.754 134.196 51.864C139.426 54.921 144.18 58.731 148.386 63.246C159.811 75.496 165.78 91.464 165.198 108.203Z"/><path fill="#fff" stroke="#000" d="M173.131 176.008L173.131 176.009C172.533 176.608 171.749 176.907 170.964 176.907C170.179 176.907 169.395 176.607 168.797 176.008L161.234 168.445C160.036 167.248 160.036 165.308 161.234 164.111C162.431 162.913 164.371 162.913 165.568 164.111L173.131 171.674C174.329 172.871 174.329 174.811 173.131 176.008Z"/><path fill="#fff" stroke="#000" d="M161.234 38.1776L161.234 38.1775L168.797 30.6126C168.797 30.6125 168.797 30.6125 168.797 30.6125C169.994 29.4148 171.934 29.4148 173.131 30.6126L173.132 30.6128C174.329 31.8083 174.329 33.7496 173.131 34.9474L173.131 34.9475L165.568 42.5125L165.568 42.5127C164.97 43.1119 164.186 43.411 163.401 43.411C162.616 43.411 161.832 43.1111 161.234 42.5124L161.233 42.5122C160.036 41.3167 160.036 39.3754 161.234 38.1776Z"/><path fill="#000" d="M101.626 188.793C99.655 188.793 98.06 190.39 98.06 192.359V203.056C98.06 205.025 99.655 206.622 101.626 206.622C103.597 206.622 105.192 205.025 105.192 203.056V192.359C105.192 190.39 103.597 188.793 101.626 188.793Z"/><path fill="#000" d="M199.686 99.745H188.989C187.018 99.745 185.423 101.342 185.423 103.311C185.423 105.28 187.018 106.877 188.989 106.877H199.686C201.657 106.877 203.252 105.28 203.252 103.311C203.252 101.342 201.656 99.745 199.686 99.745Z"/><path fill="#fff" stroke="#000" d="M42.0187 42.5122L42.0182 42.5127C41.4199 43.1119 40.6359 43.411 39.851 43.411C39.0665 43.411 38.2822 43.1111 37.6836 42.5125C37.6836 42.5125 37.6836 42.5125 37.6836 42.5124L30.1206 34.9475L30.1206 34.9474C28.9227 33.7496 28.923 31.8083 30.1203 30.6128L30.1206 30.6126C31.3183 29.4148 33.2577 29.4148 34.4554 30.6125C34.4554 30.6125 34.4554 30.6125 34.4554 30.6126L42.0184 38.1775L42.0184 38.1776C43.2163 39.3754 43.216 41.3167 42.0187 42.5122Z"/><path fill="#fff" stroke="#000" d="M34.4554 176.008L34.4552 176.009C33.8569 176.608 33.0729 176.907 32.288 176.907C31.5035 176.907 30.7192 176.607 30.1206 176.008C28.9228 174.811 28.9228 172.871 30.1206 171.674L37.6836 164.111C38.8813 162.913 40.8207 162.913 42.0184 164.111C43.2162 165.308 43.2162 167.248 42.0184 168.445L34.4554 176.008Z"/><path fill="#000" d="M101.626 17.829C103.597 17.829 105.192 16.232 105.192 14.263V3.566C105.192 1.597 103.597 0 101.626 0C99.655 0 98.06 1.597 98.06 3.566V14.263C98.06 16.232 99.655 17.829 101.626 17.829Z"/><path fill="#000" d="M14.264 99.745H3.566C1.595 99.745 0 101.342 0 103.311C0 105.28 1.595 106.877 3.566 106.877H14.263C16.234 106.877 17.829 105.28 17.829 103.311C17.829 101.342 16.234 99.745 14.264 99.745Z"/><path fill="#5B59B3" d="M172 114C167 153 131 176 102.5 176C73.5 169 54 170.5 36 126.5C108.5 142.5 138 93 127 43.5C155 47.5 173.5 82 172 114Z"/></svg>