<svg width="186" height="186" viewBox="0 0 186 186" fill="none" xmlns="http://www.w3.org/2000/svg">
<path d="M49.4062 92.9209C49.4062 117.03 68.9238 136.575 93 136.575C117.076 136.575 136.594 117.03 136.594 92.9209C136.594 68.8116 117.076 49.267 93 49.267C68.9238 49.267 49.4062 68.8116 49.4062 92.9209ZM130.781 92.9209C130.781 113.782 113.833 130.754 93 130.754C72.1675 130.754 55.2188 113.782 55.2188 92.9209C55.2188 72.0596 72.1675 55.0877 93 55.0877C113.833 55.0877 130.781 72.0596 130.781 92.9209Z" fill="#FFDD66"/>
<path d="M95.157 34.2069C96.7633 34.2069 98.0632 32.9051 98.0632 31.2965V2.91032C98.0632 1.30171 96.7633 0 95.157 0C93.5504 0 92.2507 1.30171 92.2507 2.91032V31.2965C92.2507 32.9051 93.5504 34.2069 95.157 34.2069Z" fill="#FF9F0E"/>
<path d="M141.373 13.5396C139.977 12.7268 138.2 13.2069 137.403 14.5996L123.209 39.1803C122.403 40.573 122.88 42.3522 124.268 43.1564C124.728 43.4235 125.227 43.5487 125.721 43.5487C126.726 43.5487 127.702 43.0285 128.238 42.0965L142.432 17.5154C143.238 16.123 142.761 14.3438 141.373 13.5396Z" fill="#FFDD66"/>
<path d="M147.526 66.9272C148.017 66.9272 148.517 66.8022 148.976 66.5377L173.557 52.3448C174.945 51.5432 175.425 49.7614 174.622 48.3687C173.819 46.9819 172.053 46.4985 170.651 47.303L146.07 61.496C144.682 62.2975 144.203 64.0796 145.006 65.472C145.542 66.4043 146.521 66.9272 147.526 66.9272Z" fill="#FF9F0E"/>
<path d="M34.1996 95.157C34.1996 93.5487 32.8996 92.247 31.2933 92.247H2.90625C1.29997 92.247 0 93.5487 0 95.157C0 96.7656 1.29997 98.0673 2.90625 98.0673H31.2933C32.8996 98.0673 34.1996 96.7656 34.1996 95.157Z" fill="#FFDD66"/>
<path d="M12.4451 52.3448L37.0262 66.5377C37.486 66.8022 37.9826 66.9272 38.4764 66.9272C39.4811 66.9272 40.4605 66.4043 40.9967 65.472C41.8 64.0796 41.3205 62.2975 39.9324 61.496L15.3514 47.303C13.9523 46.4985 12.1783 46.976 11.3809 48.3687C10.5776 49.7614 11.0574 51.5432 12.4451 52.3448Z" fill="#FF9F0E"/>
<path d="M60.2791 43.5487C60.7729 43.5487 61.2725 43.4234 61.7294 43.1593C63.12 42.3522 63.597 40.573 62.7936 39.1832L48.603 14.6024C47.7971 13.2069 46.0176 12.7297 44.6325 13.5367C43.2418 14.3438 42.765 16.123 43.5682 17.5128L57.7588 42.0935C58.2982 43.0285 59.2745 43.5487 60.2791 43.5487Z" fill="#FFDD66"/>
<path d="M95.157 151.799C93.5504 151.799 92.2507 153.101 92.2507 154.709V183.09C92.2507 184.698 93.5504 186 95.157 186C96.7633 186 98.0632 184.698 98.0632 183.09V154.709C98.0632 153.101 96.7633 151.799 95.157 151.799Z" fill="#FF9F0E"/>
<path d="M65.47 145.004C64.0709 144.191 62.2998 144.671 61.4995 146.064L47.3059 170.645C46.5 172.037 46.9766 173.816 48.3647 174.621C48.8245 174.888 49.324 175.013 49.8178 175.013C50.8225 175.013 51.7987 174.493 52.3352 173.56L66.5287 148.98C67.3346 147.587 66.858 145.808 65.47 145.004Z" fill="#FFDD66"/>
<path d="M39.1832 123.202L14.6022 137.396C13.2144 138.197 12.7347 139.979 13.5379 141.372C14.0744 142.304 15.0535 142.827 16.0582 142.827C16.5491 142.827 17.0487 142.702 17.5084 142.437L42.0895 128.244C43.4772 127.443 43.957 125.661 43.1538 124.268C42.3534 122.878 40.5826 122.395 39.1832 123.202Z" fill="#FF9F0E"/>
<path d="M183.094 92.247H154.712C153.106 92.247 151.806 93.5487 151.806 95.157C151.806 96.7656 153.106 98.0673 154.712 98.0673H183.094C184.7 98.0673 186 96.7656 186 95.157C186 93.5487 184.7 92.247 183.094 92.247Z" fill="#FFDD66"/>
<path d="M171.398 137.396L146.817 123.202C145.42 122.398 143.644 122.878 142.846 124.268C142.043 125.661 142.522 127.443 143.911 128.244L168.492 142.437C168.951 142.702 169.448 142.827 169.942 142.827C170.946 142.827 171.926 142.304 172.462 141.372C173.265 139.979 172.786 138.197 171.398 137.396Z" fill="#FF9F0E"/>
<path d="M124.498 146.064C123.697 144.671 121.921 144.191 120.527 145.004C119.139 145.808 118.663 147.587 119.468 148.98L133.662 173.56C134.198 174.493 135.175 175.013 136.179 175.013C136.673 175.013 137.173 174.888 137.632 174.621C139.02 173.816 139.497 172.037 138.691 170.645L124.498 146.064Z" fill="#FFDD66"/>
<circle cx="93.5" cy="93.5" r="41.5" fill="#FFDD66"/>
</svg>
